<?xml version="1.0" encoding="UTF-8" standalone="no"?>
<!-- Created with Inkscape (http://www.inkscape.org/) -->

<svg
   width="100"
   height="100"
   viewBox="0 0 26.458333 26.458333"
   version="1.1"
   id="svg5"
   inkscape:version="1.3.2 (1:1.3.2+202311252150+091e20ef0f)"
   sodipodi:docname="star.svg"
   inkscape:export-filename="stop-icon-1.png"
   inkscape:export-xdpi="96"
   inkscape:export-ydpi="96"
   xmlns:inkscape="http://www.inkscape.org/namespaces/inkscape"
   xmlns:sodipodi="http://sodipodi.sourceforge.net/DTD/sodipodi-0.dtd"
   xmlns="http://www.w3.org/2000/svg"
   xmlns:svg="http://www.w3.org/2000/svg">
  <sodipodi:namedview
     id="namedview7"
     pagecolor="#cacaca"
     bordercolor="#eeeeee"
     borderopacity="1"
     inkscape:showpageshadow="0"
     inkscape:pageopacity="0"
     inkscape:pagecheckerboard="true"
     inkscape:deskcolor="#505050"
     inkscape:document-units="mm"
     showgrid="false"
     inkscape:zoom="5.6568542"
     inkscape:cx="23.246136"
     inkscape:cy="76.190756"
     inkscape:window-width="1920"
     inkscape:window-height="960"
     inkscape:window-x="0"
     inkscape:window-y="28"
     inkscape:window-maximized="1"
     inkscape:current-layer="layer1" />
  <defs
     id="defs2" />
  <g
     inkscape:label="Layer 1"
     inkscape:groupmode="layer"
     id="layer1">
    <path
       sodipodi:type="star"
       style="fill:#e10016;fill-opacity:1;stroke:#000000;stroke-width:0.176389;stroke-linecap:square;stroke-linejoin:miter;stroke-dasharray:none;stroke-opacity:1"
       id="path13"
       inkscape:flatsided="false"
       sodipodi:sides="5"
       sodipodi:cx="13.89025"
       sodipodi:cy="-17.444902"
       sodipodi:r1="2.6477497"
       sodipodi:r2="1.0528479"
       sodipodi:arg1="0.94256946"
       sodipodi:arg2="1.6031428"
       inkscape:rounded="0.05"
       inkscape:randomized="0"
       d="m 15.446362,-15.302685 c -0.07977,0.05411 -1.49377,-1.089912 -1.590162,-1.08992 -0.09361,-9e-6 -1.448541,1.147078 -1.522454,1.089634 -0.07611,-0.05915 0.574966,-1.757461 0.545188,-1.849137 -0.02892,-0.08903 -1.53856,-1.023178 -1.506768,-1.111225 0.03274,-0.09066 1.849119,0.0037 1.927106,-0.05291 0.07574,-0.05502 0.497659,-1.779437 0.591221,-1.776409 0.09634,0.0031 0.567852,1.759773 0.645829,1.816437 0.07573,0.05503 1.84613,-0.07657 1.872163,0.01334 0.02681,0.09259 -1.498168,1.083859 -1.527963,1.17553 -0.02893,0.08903 0.643312,1.732111 0.56584,1.784656 z"
       inkscape:transform-center-x="-0.062512026"
       inkscape:transform-center-y="-1.9851848"
       transform="matrix(4.5499648,0,0,4.5499648,-50.081142,93.916954)"
       inkscape:export-filename="star.png"
       inkscape:export-xdpi="300"
       inkscape:export-ydpi="300" />
  </g>
</svg>
